<!DOCTYPE svg PUBLIC "-//W3C//DTD SVG 1.1//EN" "http://www.w3.org/Graphics/SVG/1.1/DTD/svg11.dtd"><svg xmlns="http://www.w3.org/2000/svg"><symbol id="arrow-right" viewBox="0 0 128 128"><g fill="none" stroke="#fff" stroke-width="12" stroke-miterlimit="10"><g stroke-linecap="square"><path d="M70.88 24.666L110.213 64M110.213 64L70.88 103.334"/></g><path d="M110.213 64H9.787"/></g></symbol><symbol id="play" viewBox="0 0 141.73 141.73"><path d="M101.628 40.092c-8.22-8.22-19.148-12.745-30.773-12.745-11.624 0-22.554 4.525-30.772 12.745-16.968 16.97-16.967 44.578 0 61.547 8.222 8.22 19.15 12.743 30.774 12.743s22.553-4.525 30.77-12.745c8.22-8.22 12.748-19.15 12.748-30.774s-4.527-22.555-12.747-30.775zm-1.414 60.133c-7.842 7.842-18.27 12.16-29.357 12.16s-21.518-4.32-29.36-12.16c-16.187-16.19-16.187-42.53 0-58.72 7.842-7.842 18.27-12.16 29.358-12.16 11.09 0 21.518 4.318 29.36 12.16 7.842 7.844 12.16 18.27 12.16 29.36s-4.32 21.517-12.16 29.36z"/><path d="M80.065 70.156L65.893 55.983a.993.993 0 0 0-.743-.287c-.012 0-.02-.007-.033-.007a.994.994 0 0 0-1 1v28.345c0 .554.447 1 1 1 .012 0 .02-.007.034-.007.015 0 .026.006.038.006a.997.997 0 0 0 .707-.293l14.17-14.172a1 1 0 0 0 0-1.414zM66.117 82.692V59.035l11.828 11.828-11.828 11.83z"/></symbol></svg>